<svg width="141" height="141" viewBox="0 0 141 141" fill="none" xmlns="http://www.w3.org/2000/svg">
<path d="M14.1935 102.438C-3.43112 85.2644 -3.79708 57.0553 13.376 39.4307L38.4896 13.6569C55.6628 -3.96765 83.8719 -4.33361 101.496 12.8395L127.27 37.9531C144.895 55.1262 145.261 83.3353 128.088 100.96L102.974 126.734C85.8009 144.358 57.5918 144.724 39.9672 127.551L14.1935 102.438Z" fill="url(#paint0_linear_403_2394)"/>
<path d="M28.62 121.218C23.6985 121.218 19.7088 117.229 19.7088 112.307V28.0837C19.7088 23.1621 23.6985 19.1724 28.62 19.1724H112.844C117.765 19.1724 121.755 23.1621 121.755 28.0837V112.307C121.755 117.229 117.765 121.218 112.844 121.218H28.62Z" fill="url(#paint1_linear_403_2394)"/>
<path d="M108.359 69.9503C108.359 90.8669 91.4032 107.823 70.4866 107.823C49.57 107.823 32.6137 90.8669 32.6137 69.9503C32.6137 49.0337 49.57 32.0775 70.4866 32.0775C91.4032 32.0775 108.359 49.0337 108.359 69.9503Z" fill="#008AD8"/>
<path d="M100.718 34.5867C98.1428 32.9136 94.6942 33.6466 93.0144 36.2264L68.7624 73.6069L57.5587 63.2475C55.2997 61.1579 51.7753 61.2982 49.6879 63.555C47.6004 65.814 47.7385 69.3384 49.9975 71.4259L66.0578 86.2765C67.1272 87.2678 68.4862 87.758 69.8362 87.758C71.3355 87.758 73.2537 87.1297 74.5124 85.2205C75.252 84.0932 102.36 42.2905 102.36 42.2905C104.033 39.7084 103.298 36.2598 100.718 34.5867Z" fill="#CBECFF"/>
<defs>
<linearGradient id="paint0_linear_403_2394" x1="70.7318" y1="0.195312" x2="70.7318" y2="140.195" gradientUnits="userSpaceOnUse">
<stop stop-color="#A2B1E5"/>
<stop offset="1" stop-color="#8BD6F3"/>
</linearGradient>
<linearGradient id="paint1_linear_403_2394" x1="70.7318" y1="0.195312" x2="70.7318" y2="140.195" gradientUnits="userSpaceOnUse">
<stop stop-color="#DFF4FF"/>
<stop offset="1" stop-color="#5695DF"/>
<stop offset="1" stop-color="#23A0F4"/>
</linearGradient>
</defs>
</svg>
