<svg width="33" height="33" viewBox="0 0 33 33" fill="none" xmlns="http://www.w3.org/2000/svg">
<rect x="0.405579" y="16.6132" width="22.6293" height="22.6293" rx="8.2096" transform="rotate(-45.7433 0.405579 16.6132)" fill="url(#paint0_linear_119_2440)"/>
<rect x="7.17593" y="25.6353" width="18.4593" height="18.4593" rx="1.64192" transform="rotate(-90 7.17593 25.6353)" fill="url(#paint1_linear_119_2440)"/>
<g filter="url(#filter0_i_119_2440)">
<circle cx="16.3612" cy="16.3613" r="6.8509" fill="#008AD8"/>
</g>
<circle cx="16.3612" cy="16.3613" r="6.64566" stroke="#CBECFF" stroke-width="0.41048"/>
<path d="M21.8299 9.9643C21.364 9.66165 20.7402 9.79423 20.4363 10.2609L16.0493 17.0227L14.0227 15.1488C13.614 14.7708 12.9765 14.7962 12.5989 15.2044C12.2213 15.6131 12.2463 16.2506 12.6549 16.6282L15.5601 19.3146C15.7535 19.4939 15.9993 19.5826 16.2436 19.5826C16.5148 19.5826 16.8618 19.4689 17.0894 19.1236C17.2232 18.9196 22.1269 11.3579 22.1269 11.3579C22.4295 10.8908 22.2965 10.2669 21.8299 9.9643Z" fill="#CBECFF"/>
<defs>
<filter id="filter0_i_119_2440" x="9.51031" y="9.51036" width="13.7018" height="15.3437" filterUnits="userSpaceOnUse" color-interpolation-filters="sRGB">
<feFlood flood-opacity="0" result="BackgroundImageFix"/>
<feBlend mode="normal" in="SourceGraphic" in2="BackgroundImageFix" result="shape"/>
<feColorMatrix in="SourceAlpha" type="matrix" values="0 0 0 0 0 0 0 0 0 0 0 0 0 0 0 0 0 0 127 0" result="hardAlpha"/>
<feOffset dy="1.64192"/>
<feGaussianBlur stdDeviation="0.82096"/>
<feComposite in2="hardAlpha" operator="arithmetic" k2="-1" k3="1"/>
<feColorMatrix type="matrix" values="0 0 0 0 0 0 0 0 0 0 0 0 0 0 0 0 0 0 0.25 0"/>
<feBlend mode="normal" in2="shape" result="effect1_innerShadow_119_2440"/>
</filter>
<linearGradient id="paint0_linear_119_2440" x1="11.7202" y1="16.6132" x2="11.7202" y2="39.2425" gradientUnits="userSpaceOnUse">
<stop stop-color="#A2B1E5"/>
<stop offset="1" stop-color="#8BD6F3"/>
</linearGradient>
<linearGradient id="paint1_linear_119_2440" x1="16.4056" y1="25.6353" x2="16.4056" y2="44.0946" gradientUnits="userSpaceOnUse">
<stop stop-color="#DFF4FF"/>
<stop offset="1" stop-color="#5695DF"/>
<stop offset="1" stop-color="#23A0F4"/>
</linearGradient>
</defs>
</svg>
